<?xml version="1.0" encoding="UTF-8" standalone="no"?>
<!-- Created with Inkscape (http://www.inkscape.org/) -->

<svg
   width="210mm"
   height="297mm"
   viewBox="0 0 210 297"
   version="1.1"
   id="svg5"
   xml:space="preserve"
   inkscape:version="1.3.2 (1:1.3.2+202311252150+091e20ef0f)"
   sodipodi:docname="background.svg"
   inkscape:export-filename="../1f59b0df/pulltest-bg.png"
   inkscape:export-xdpi="96"
   inkscape:export-ydpi="96"
   xmlns:inkscape="http://www.inkscape.org/namespaces/inkscape"
   xmlns:sodipodi="http://sodipodi.sourceforge.net/DTD/sodipodi-0.dtd"
   xmlns="http://www.w3.org/2000/svg"
   xmlns:svg="http://www.w3.org/2000/svg"><sodipodi:namedview
     id="namedview7"
     pagecolor="#ffffff"
     bordercolor="#000000"
     borderopacity="0.25"
     inkscape:showpageshadow="2"
     inkscape:pageopacity="0.0"
     inkscape:pagecheckerboard="0"
     inkscape:deskcolor="#d1d1d1"
     inkscape:document-units="mm"
     showgrid="false"
     inkscape:zoom="1.2872701"
     inkscape:cx="362.00639"
     inkscape:cy="371.32844"
     inkscape:window-width="1920"
     inkscape:window-height="1084"
     inkscape:window-x="1200"
     inkscape:window-y="1227"
     inkscape:window-maximized="1"
     inkscape:current-layer="layer1" /><defs
     id="defs2"><clipPath
       clipPathUnits="userSpaceOnUse"
       id="clipPath2"><path
         d="M 0,1400 H 1400 V 0 H 0 Z"
         transform="translate(-1325.4483,-839.76462)"
         id="path2" /></clipPath><clipPath
       clipPathUnits="userSpaceOnUse"
       id="clipPath4"><path
         d="M 0,1400 H 1400 V 0 H 0 Z"
         transform="translate(-1309.5978,-759.89012)"
         id="path4" /></clipPath><clipPath
       clipPathUnits="userSpaceOnUse"
       id="clipPath6"><path
         d="M 0,1400 H 1400 V 0 H 0 Z"
         transform="translate(-1293.0909,-679.34671)"
         id="path6" /></clipPath><clipPath
       clipPathUnits="userSpaceOnUse"
       id="clipPath8"><path
         d="M 0,1400 H 1400 V 0 H 0 Z"
         transform="translate(-1260.0859,-922.95172)"
         id="path8" /></clipPath><clipPath
       clipPathUnits="userSpaceOnUse"
       id="clipPath10"><path
         d="M 0,1400 H 1400 V 0 H 0 Z"
         transform="translate(-1193.3985,-1004.8198)"
         id="path10" /></clipPath><clipPath
       clipPathUnits="userSpaceOnUse"
       id="clipPath12"><path
         d="M 0,1400 H 1400 V 0 H 0 Z"
         transform="translate(-1192.7433,-600.78322)"
         id="path12" /></clipPath><clipPath
       clipPathUnits="userSpaceOnUse"
       id="clipPath14"><path
         d="M 0,1400 H 1400 V 0 H 0 Z"
         transform="translate(-1108.8936,-1004.8198)"
         id="path14" /></clipPath><clipPath
       clipPathUnits="userSpaceOnUse"
       id="clipPath16"><path
         d="M 0,1400 H 1400 V 0 H 0 Z"
         transform="translate(-1092.3867,-518.91411)"
         id="path16" /></clipPath><clipPath
       clipPathUnits="userSpaceOnUse"
       id="clipPath18"><path
         d="M 0,1400 H 1400 V 0 H 0 Z"
         transform="translate(-1026.376,-1004.8198)"
         id="path18" /></clipPath><clipPath
       clipPathUnits="userSpaceOnUse"
       id="clipPath20"><path
         d="M 0,1400 H 1400 V 0 H 0 Z"
         transform="translate(-1014.4932,-518.91411)"
         id="path20" /></clipPath><clipPath
       clipPathUnits="userSpaceOnUse"
       id="clipPath22"><path
         d="M 0,1400 H 1400 V 0 H 0 Z"
         transform="translate(-1009.8838,-922.95172)"
         id="path22" /></clipPath><clipPath
       clipPathUnits="userSpaceOnUse"
       id="clipPath24"><path
         d="M 0,1400 H 1400 V 0 H 0 Z"
         transform="translate(-992.04595,-839.76462)"
         id="path24" /></clipPath><clipPath
       clipPathUnits="userSpaceOnUse"
       id="clipPath26"><path
         d="M 0,1400 H 1400 V 0 H 0 Z"
         transform="translate(-976.8643,-759.89012)"
         id="path26" /></clipPath><clipPath
       clipPathUnits="userSpaceOnUse"
       id="clipPath28"><path
         d="M 0,1400 H 1400 V 0 H 0 Z"
         transform="translate(-961.02055,-679.34671)"
         id="path28" /></clipPath><clipPath
       clipPathUnits="userSpaceOnUse"
       id="clipPath30"><path
         d="M 0,1400 H 1400 V 0 H 0 Z"
         transform="translate(-943.84472,-600.78322)"
         id="path30" /></clipPath><clipPath
       clipPathUnits="userSpaceOnUse"
       id="clipPath32"><path
         d="M 0,1400 H 1400 V 0 H 0 Z"
         transform="translate(-929.32622,-518.91411)"
         id="path32" /></clipPath><clipPath
       clipPathUnits="userSpaceOnUse"
       id="clipPath34"><path
         d="M 0,1400 H 1400 V 0 H 0 Z"
         transform="translate(-886.41805,-922.95172)"
         id="path34" /></clipPath><clipPath
       clipPathUnits="userSpaceOnUse"
       id="clipPath36"><path
         d="M 0,1400 H 1400 V 0 H 0 Z"
         transform="translate(-821.7187,-600.78322)"
         id="path36" /></clipPath><clipPath
       clipPathUnits="userSpaceOnUse"
       id="clipPath38"><path
         d="M 0,1400 H 1400 V 0 H 0 Z"
         transform="translate(-815.10745,-1004.8198)"
         id="path38" /></clipPath><clipPath
       clipPathUnits="userSpaceOnUse"
       id="clipPath40"><path
         d="M 0,1400 H 1400 V 0 H 0 Z"
         transform="translate(-731.92772,-1004.8198)"
         id="path40" /></clipPath><clipPath
       clipPathUnits="userSpaceOnUse"
       id="clipPath42"><path
         d="M 0,1400 H 1400 V 0 H 0 Z"
         transform="translate(-720.05182,-518.91411)"
         id="path42" /></clipPath><clipPath
       clipPathUnits="userSpaceOnUse"
       id="clipPath44"><path
         d="M 0,1400 H 1400 V 0 H 0 Z"
         transform="translate(-651.39112,-1004.8198)"
         id="path44" /></clipPath><clipPath
       clipPathUnits="userSpaceOnUse"
       id="clipPath46"><path
         d="M 0,1400 H 1400 V 0 H 0 Z"
         transform="translate(-636.86522,-518.91411)"
         id="path46" /></clipPath><clipPath
       clipPathUnits="userSpaceOnUse"
       id="clipPath48"><path
         d="M 0,1400 H 1400 V 0 H 0 Z"
         transform="translate(-556.98442,-922.95172)"
         id="path48" /></clipPath><clipPath
       clipPathUnits="userSpaceOnUse"
       id="clipPath50"><path
         d="M 0,1400 H 1400 V 0 H 0 Z"
         transform="translate(-556.32082,-518.91411)"
         id="path50" /></clipPath><clipPath
       clipPathUnits="userSpaceOnUse"
       id="clipPath52"><path
         d="M 0,1400 H 1400 V 0 H 0 Z"
         transform="translate(-541.14011,-839.76462)"
         id="path52" /></clipPath><clipPath
       clipPathUnits="userSpaceOnUse"
       id="clipPath54"><path
         d="M 0,1400 H 1400 V 0 H 0 Z"
         transform="translate(-526.61471,-759.89012)"
         id="path54" /></clipPath><clipPath
       clipPathUnits="userSpaceOnUse"
       id="clipPath56"><path
         d="M 0,1400 H 1400 V 0 H 0 Z"
         transform="translate(-510.10841,-679.34671)"
         id="path56" /></clipPath><clipPath
       clipPathUnits="userSpaceOnUse"
       id="clipPath58"><path
         d="M 0,1400 H 1400 V 0 H 0 Z"
         transform="translate(-493.60211,-600.78322)"
         id="path58" /></clipPath><clipPath
       clipPathUnits="userSpaceOnUse"
       id="clipPath60"><path
         d="M 0,1400 H 1400 V 0 H 0 Z"
         transform="translate(-395.23391,-518.91411)"
         id="path60" /></clipPath><clipPath
       clipPathUnits="userSpaceOnUse"
       id="clipPath62"><path
         d="M 0,1400 H 1400 V 0 H 0 Z"
         transform="translate(-314.03471,-518.91411)"
         id="path62" /></clipPath><clipPath
       clipPathUnits="userSpaceOnUse"
       id="clipPath64"><path
         d="M 0,1400 H 1400 V 0 H 0 Z"
         transform="translate(-228.86671,-518.91411)"
         id="path64" /></clipPath><clipPath
       clipPathUnits="userSpaceOnUse"
       id="clipPath66"><path
         d="M 0,1400 H 1400 V 0 H 0 Z"
         transform="translate(-152.2915,-1004.8198)"
         id="path66" /></clipPath><clipPath
       clipPathUnits="userSpaceOnUse"
       id="clipPath68"><path
         d="M 0,1400 H 1400 V 0 H 0 Z"
         transform="translate(-143.707,-518.91411)"
         id="path68" /></clipPath><clipPath
       clipPathUnits="userSpaceOnUse"
       id="clipPath70"><path
         d="M 0,1400 H 1400 V 0 H 0 Z"
         transform="translate(-136.4478,-922.95172)"
         id="path70" /></clipPath><clipPath
       clipPathUnits="userSpaceOnUse"
       id="clipPath72"><path
         d="M 0,1400 H 1400 V 0 H 0 Z"
         transform="translate(-121.26321,-839.76462)"
         id="path72" /></clipPath><clipPath
       clipPathUnits="userSpaceOnUse"
       id="clipPath74"><path
         d="M 0,1400 H 1400 V 0 H 0 Z"
         transform="translate(-106.0708,-759.89012)"
         id="path74" /></clipPath><clipPath
       clipPathUnits="userSpaceOnUse"
       id="clipPath76"><path
         d="M 0,1400 H 1400 V 0 H 0 Z"
         transform="translate(-147.6606,-679.34671)"
         id="path76" /></clipPath><clipPath
       clipPathUnits="userSpaceOnUse"
       id="clipPath78"><path
         d="M 0,1400 H 1400 V 0 H 0 Z"
         transform="translate(-74.387202,-600.78322)"
         id="path78" /></clipPath><clipPath
       clipPathUnits="userSpaceOnUse"
       id="clipPath80"><path
         d="M 0,1400 H 1400 V 0 H 0 Z"
         transform="translate(-60.516602,-518.91411)"
         id="path80" /></clipPath></defs><g
     inkscape:label="Work Area"
     inkscape:groupmode="layer"
     id="layer1"
     style="display:inline"><rect
       style="fill:#000000;fill-opacity:1;stroke:none;stroke-width:3.09853"
       id="rect380-35-6"
       width="105.83334"
       height="79.375"
       x="49.476929"
       y="66.037689" /><rect
       style="fill:#d6d6d6;fill-opacity:1;stroke:none;stroke-width:1"
       id="rect380"
       width="35.2285"
       height="24.837362"
       x="7.8869767"
       y="20.102364" /><rect
       style="fill:#ffee32;fill-opacity:1;stroke:none;stroke-width:1"
       id="rect380-3"
       width="35.2285"
       height="24.837362"
       x="47.119129"
       y="20.324833" /><rect
       style="fill:#ffd100;fill-opacity:1;stroke:none;stroke-width:1"
       id="rect380-3-6"
       width="35.2285"
       height="24.837362"
       x="86.796211"
       y="20.102364" /><rect
       style="fill:#202020;fill-opacity:1;stroke:none;stroke-width:1"
       id="rect380-3-7"
       width="35.2285"
       height="24.837362"
       x="126.25083"
       y="20.259672" /><rect
       style="fill:#333533;fill-opacity:1;stroke:none;stroke-width:1"
       id="rect380-3-5"
       width="35.2285"
       height="24.837362"
       x="165.70544"
       y="20.102364" /><g
       id="g3"
       inkscape:export-filename="../../sd/Serial/bacckground.png"
       inkscape:export-xdpi="96"
       inkscape:export-ydpi="96"><rect
         style="display:inline;fill:#333533;fill-opacity:1;stroke:none;stroke-width:2.47882"
         id="rect3524"
         width="84.666664"
         height="63.5"
         x="60.060268"
         y="73.975189"
         inkscape:export-filename="../1f59b0df/pulltest-bg.png"
         inkscape:export-xdpi="96"
         inkscape:export-ydpi="96" /><rect
         style="display:inline;fill:#ffee32;fill-opacity:1;stroke:none;stroke-width:0.460385"
         id="rect3528"
         width="22.38245"
         height="8.2858086"
         x="121.02157"
         y="75.531479"
         ry="1.8297832" /><rect
         style="display:inline;fill:#ffee32;fill-opacity:1;stroke:none;stroke-width:0.328276"
         id="rect3538"
         width="11.380023"
         height="8.2858086"
         x="61.383183"
         y="75.531479"
         ry="1.8297832" /><rect
         style="display:inline;fill:#202020;fill-opacity:1;stroke:none;stroke-width:0.115138"
         id="rect3540"
         width="8.9873857"
         height="1.2906349"
         x="62.579502"
         y="76.686775"
         ry="0.64531744" /><rect
         style="display:inline;fill:#202020;fill-opacity:1;stroke:none;stroke-width:0.115138"
         id="rect3542"
         width="8.9873857"
         height="1.2906349"
         x="62.579502"
         y="79.029068"
         ry="0.64531744" /><rect
         style="display:inline;fill:#202020;fill-opacity:1;stroke:none;stroke-width:0.115138"
         id="rect3544"
         width="8.9873857"
         height="1.2906349"
         x="62.579502"
         y="81.371361"
         ry="0.64531744" /><rect
         style="display:inline;fill:#ffd100;fill-opacity:1;stroke:none;stroke-width:1.9824"
         id="rect3566"
         width="82.020836"
         height="41.923977"
         x="61.383183"
         y="94.237846"
         ry="2.3408751" /><rect
         style="display:inline;fill:#d6d6d6;fill-opacity:1;stroke:none;stroke-width:1.90461"
         id="rect3568"
         width="79.947029"
         height="39.702419"
         x="62.420086"
         y="95.348625"
         ry="1.9002415" /><g
         id="g1"
         transform="matrix(1.2202509,0,0,1.2202509,-15.33386,-12.10348)"
         inkscape:label="EarthLCD"
         style="display:inline"><g
           id="g80"
           transform="matrix(0.00838707,0,0,0.00838707,91.832575,71.968113)"><path
             id="path1-3"
             d="M 0,0 H 56.771 C 53.68,-19.47 48.315,-40.507 45.551,-57.434 H -11.89 C -8.007,-36.91 -4.631,-18.757 0,0"
             style="fill:#0000ff icc-color(sRGB-IEC61966-2, 0.1, 0, 0, 1);fill-opacity:1;fill-rule:nonzero;stroke:none"
             transform="matrix(1.3333333,0,0,-1.3333333,1767.2643,746.98053)"
             clip-path="url(#clipPath2)" /><path
             id="path3"
             d="M 0,0 H 56.771 C 52.574,-20.132 48.543,-38.726 44.896,-58.103 H -12.538 C -8.399,-39.082 -5.201,-15.793 0,0"
             style="fill:#0000ff icc-color(sRGB-IEC61966-2, 0.1, 0, 0, 1);fill-opacity:1;fill-rule:nonzero;stroke:none"
             transform="matrix(1.3333333,0,0,-1.3333333,1746.1303,853.47987)"
             clip-path="url(#clipPath4)" /><path
             id="path5"
             d="m 0,0 h 56.778 c -3.39,-17.254 -8.905,-39.353 -11.22,-57.434 H -12.537 C -8.791,-38.868 -4.744,-21.5 -1.318,-1.98 -1.347,-0.855 -0.84,-0.271 0,0"
             style="fill:#0000ff icc-color(sRGB-IEC61966-2, 0.1, 0, 0, 1);fill-opacity:1;fill-rule:nonzero;stroke:none"
             transform="matrix(1.3333333,0,0,-1.3333333,1724.1211,960.87107)"
             clip-path="url(#clipPath6)" /><path
             id="path7"
             d="M 0,0 H 57.433 C 52.924,-18.865 49.12,-39.524 45.551,-57.441 27.498,-55.895 6.61,-57.213 -12.553,-56.772 -7.074,-38.107 -5.208,-19.363 0,0"
             style="fill:#0000ff icc-color(sRGB-IEC61966-2, 0.1, 0, 0, 1);fill-opacity:1;fill-rule:nonzero;stroke:none"
             transform="matrix(1.3333333,0,0,-1.3333333,1680.1145,636.0644)"
             clip-path="url(#clipPath8)" /><path
             id="path9"
             d="M 0,0 H 57.44 C 53.059,-19.491 48.97,-37.636 45.564,-58.765 h -58.103 c 4.168,21.201 7.837,36.111 11.227,56.778 C -1.34,-0.855 -0.819,-0.278 0,0"
             style="fill:#0000ff icc-color(sRGB-IEC61966-2, 0.1, 0, 0, 1);fill-opacity:1;fill-rule:nonzero;stroke:none"
             transform="matrix(1.3333333,0,0,-1.3333333,1591.1979,526.90693)"
             clip-path="url(#clipPath10)" /><path
             id="path11"
             d="M 0,0 H 56.778 C 53.052,-19.577 49.27,-39.282 44.888,-58.104 H -11.884 C -8.093,-38.071 -4.481,-18.551 0,0"
             style="fill:#0000ff icc-color(sRGB-IEC61966-2, 0.1, 0, 0, 1);fill-opacity:1;fill-rule:nonzero;stroke:none"
             transform="matrix(1.3333333,0,0,-1.3333333,1590.3243,1065.6224)"
             clip-path="url(#clipPath12)" /><path
             id="path13"
             d="M 0,0 H 56.785 C 52.967,-20.303 49.02,-37.949 44.896,-58.765 H -12.545 C -7.943,-37.6 -5.507,-17.952 0,0"
             style="fill:#0000ff icc-color(sRGB-IEC61966-2, 0.1, 0, 0, 1);fill-opacity:1;fill-rule:nonzero;stroke:none"
             transform="matrix(1.3333333,0,0,-1.3333333,1478.5248,526.90693)"
             clip-path="url(#clipPath14)" /><path
             id="path15"
             d="M 0,0 H 56.786 C 52.896,-17.98 49.27,-38.17 44.903,-57.434 26.195,-57.875 5.735,-56.55 -11.875,-58.089 -8.933,-42.358 -4.908,-17.967 0,0"
             style="fill:#0000ff icc-color(sRGB-IEC61966-2, 0.1, 0, 0, 1);fill-opacity:1;fill-rule:nonzero;stroke:none"
             transform="matrix(1.3333333,0,0,-1.3333333,1456.5156,1174.7812)"
             clip-path="url(#clipPath16)" /><path
             id="path17"
             d="M 0,0 H 56.778 C 52.611,-19.384 49.085,-39.402 44.896,-58.765 H -12.538 C -8.563,-39.951 -5.756,-19.833 0,0"
             style="fill:#0000ff icc-color(sRGB-IEC61966-2, 0.1, 0, 0, 1);fill-opacity:1;fill-rule:nonzero;stroke:none"
             transform="matrix(1.3333333,0,0,-1.3333333,1368.5013,526.90693)"
             clip-path="url(#clipPath18)" /><path
             id="path19"
             d="M 0,0 H 56.116 C 52.824,-21.272 48.379,-37.429 44.896,-58.089 27.064,-56.564 6.391,-57.86 -12.545,-57.434 -7.644,-38.127 -5.948,-18.821 0,0"
             style="fill:#0000ff icc-color(sRGB-IEC61966-2, 0.1, 0, 0, 1);fill-opacity:1;fill-rule:nonzero;stroke:none"
             transform="matrix(1.3333333,0,0,-1.3333333,1352.6576,1174.7812)"
             clip-path="url(#clipPath20)" /><path
             id="path21"
             d="M 0,0 H 57.427 C 53.388,-19.976 49.313,-36.789 46.2,-56.772 H -11.896 C -7.63,-38.641 -4.431,-17.126 0,0"
             style="fill:#0000ff icc-color(sRGB-IEC61966-2, 0.1, 0, 0, 1);fill-opacity:1;fill-rule:nonzero;stroke:none"
             transform="matrix(1.3333333,0,0,-1.3333333,1346.5117,636.0644)"
             clip-path="url(#clipPath22)" /><path
             id="path23"
             d="M 0,0 H 57.434 C 54.69,-21.166 49.305,-37.251 46.876,-57.434 H -11.221 C -7.409,-38.356 -3.284,-19.599 0,0"
             style="fill:#0000ff icc-color(sRGB-IEC61966-2, 0.1, 0, 0, 1);fill-opacity:1;fill-rule:nonzero;stroke:none"
             transform="matrix(1.3333333,0,0,-1.3333333,1322.7279,746.98053)"
             clip-path="url(#clipPath24)" /><path
             id="path25"
             d="M 0,0 H 56.778 C 53.209,-19.199 49.405,-40.507 44.889,-58.103 H -11.883 C -7.644,-37.23 -5.001,-19.925 0,0"
             style="fill:#0000ff icc-color(sRGB-IEC61966-2, 0.1, 0, 0, 1);fill-opacity:1;fill-rule:nonzero;stroke:none"
             transform="matrix(1.3333333,0,0,-1.3333333,1302.4857,853.47987)"
             clip-path="url(#clipPath26)" /><path
             id="path27"
             d="M 0,0 H 56.778 C 53.409,-17.283 49.042,-36.931 45.551,-57.434 H -11.883 C -8.74,-37.572 -4.445,-22.156 -1.324,-1.98 -1.347,-0.855 -0.826,-0.271 0,0"
             style="fill:#0000ff icc-color(sRGB-IEC61966-2, 0.1, 0, 0, 1);fill-opacity:1;fill-rule:nonzero;stroke:none"
             transform="matrix(1.3333333,0,0,-1.3333333,1281.3607,960.87107)"
             clip-path="url(#clipPath28)" /><path
             id="path29"
             d="m 0,0 h 56.778 c -4.125,-21.472 -7.63,-35.99 -11.213,-58.104 h -57.44 C -8.99,-39.737 -4.602,-22.611 -1.311,-1.98 -1.339,-0.854 -0.819,-0.271 0,0"
             style="fill:#0000ff icc-color(sRGB-IEC61966-2, 0.1, 0, 0, 1);fill-opacity:1;fill-rule:nonzero;stroke:none"
             transform="matrix(1.3333333,0,0,-1.3333333,1258.4596,1065.6224)"
             clip-path="url(#clipPath30)" /><path
             id="path31"
             d="M 0,0 H 56.116 C 52.902,-19.805 48.7,-37.5 44.889,-58.089 27.063,-56.564 6.391,-57.86 -12.538,-57.434 -7.416,-38.797 -6.177,-18.493 0,0"
             style="fill:#0000ff icc-color(sRGB-IEC61966-2, 0.1, 0, 0, 1);fill-opacity:1;fill-rule:nonzero;stroke:none"
             transform="matrix(1.3333333,0,0,-1.3333333,1239.1016,1174.7812)"
             clip-path="url(#clipPath32)" /><path
             id="path33"
             d="M 0,0 H 56.771 C 53.053,-19.713 49.455,-36.575 45.552,-56.772 26.844,-57.22 6.383,-55.888 -11.227,-57.441 -9.282,-39.125 -4.323,-18.131 0,0"
             style="fill:#01ff00 icc-color(sRGB-IEC61966-2, 0.1, 0, 1, 0);fill-opacity:1;fill-rule:nonzero;stroke:none"
             transform="matrix(1.3333333,0,0,-1.3333333,1181.8907,636.0644)"
             clip-path="url(#clipPath34)" /><path
             id="path35"
             d="M 0,0 H 56.115 C 52.574,-19.562 48.3,-38.398 44.895,-58.104 H -12.538 C -8.058,-39.04 -5.82,-17.725 0,0"
             style="fill:#01ff00 icc-color(sRGB-IEC61966-2, 0.1, 0, 1, 0);fill-opacity:1;fill-rule:nonzero;stroke:none"
             transform="matrix(1.3333333,0,0,-1.3333333,1095.6249,1065.6224)"
             clip-path="url(#clipPath36)" /><path
             id="path37"
             d="m 0,0 h 57.448 c -4.609,-20.353 -7.78,-38.669 -11.884,-58.765 h -57.44 C -7.965,-39.139 -4.581,-18.949 0,0"
             style="fill:#01ff00 icc-color(sRGB-IEC61966-2, 0.1, 0, 1, 0);fill-opacity:1;fill-rule:nonzero;stroke:none"
             transform="matrix(1.3333333,0,0,-1.3333333,1086.8099,526.90693)"
             clip-path="url(#clipPath38)" /><path
             id="path39"
             d="M 0,0 H 57.44 C 52.988,-19.106 49.298,-38.954 45.558,-58.765 H -11.876 C -8.029,-38.669 -4.681,-18.444 0,0"
             style="fill:#01ff00 icc-color(sRGB-IEC61966-2, 0.1, 0, 1, 0);fill-opacity:1;fill-rule:nonzero;stroke:none"
             transform="matrix(1.3333333,0,0,-1.3333333,975.9036,526.90693)"
             clip-path="url(#clipPath40)" /><path
             id="path41"
             d="M 0,0 H 56.116 C 52.775,-17.325 48.764,-37.472 44.896,-57.434 H -12.545 C -7.65,-38.426 -6.155,-17.98 0,0"
             style="fill:#01ff00 icc-color(sRGB-IEC61966-2, 0.1, 0, 1, 0);fill-opacity:1;fill-rule:nonzero;stroke:none"
             transform="matrix(1.3333333,0,0,-1.3333333,960.06907,1174.7812)"
             clip-path="url(#clipPath42)" /><path
             id="path43"
             d="M 0,0 H 56.771 C 53.451,-17.667 49.156,-39.852 44.896,-58.765 H -11.883 C -8.186,-38.056 -4.987,-17.917 0,0"
             style="fill:#01ff00 icc-color(sRGB-IEC61966-2, 0.1, 0, 1, 0);fill-opacity:1;fill-rule:nonzero;stroke:none"
             transform="matrix(1.3333333,0,0,-1.3333333,868.52147,526.90693)"
             clip-path="url(#clipPath44)" /><path
             id="path45"
             d="m 0,0 h 56.115 c -2.5,-17.753 -7.708,-37.899 -10.557,-57.434 H -11.876 C -7.608,-37.173 -5.343,-18.465 0,0"
             style="fill:#01ff00 icc-color(sRGB-IEC61966-2, 0.1, 0, 1, 0);fill-opacity:1;fill-rule:nonzero;stroke:none"
             transform="matrix(1.3333333,0,0,-1.3333333,849.1536,1174.7812)"
             clip-path="url(#clipPath46)" /><path
             id="path47"
             d="M 0,0 H 58.095 C 54.042,-18.608 50.708,-37.936 46.875,-56.772 H -10.573 C -6.911,-36.618 -2.836,-20.945 0,0"
             style="fill:#01ff00 icc-color(sRGB-IEC61966-2, 0.1, 0, 1, 0);fill-opacity:1;fill-rule:nonzero;stroke:none"
             transform="matrix(1.3333333,0,0,-1.3333333,742.64587,636.0644)"
             clip-path="url(#clipPath48)" /><path
             id="path49"
             d="M 0,0 H 56.778 C 53.017,-19.263 48.607,-40.179 45.544,-58.089 27.727,-56.564 7.039,-57.86 -11.882,-57.434 -7.394,-38.797 -5.193,-19.093 0,0"
             style="fill:#01ff00 icc-color(sRGB-IEC61966-2, 0.1, 0, 1, 0);fill-opacity:1;fill-rule:nonzero;stroke:none"
             transform="matrix(1.3333333,0,0,-1.3333333,741.76107,1174.7812)"
             clip-path="url(#clipPath50)" /><path
             id="path51"
             d="M 0,0 H 56.778 C 53.672,-19.648 48.813,-40.044 46.213,-56.764 28.161,-58.317 7.259,-56.985 -11.883,-57.434 -7.181,-37.266 -3.769,-14.811 0,0"
             style="fill:#01ff00 icc-color(sRGB-IEC61966-2, 0.1, 0, 1, 0);fill-opacity:1;fill-rule:nonzero;stroke:none"
             transform="matrix(1.3333333,0,0,-1.3333333,721.52013,746.98053)"
             clip-path="url(#clipPath52)" /><path
             id="path53"
             d="M 0,0 H 56.116 C 52.133,-19.583 47.695,-41.063 44.895,-58.103 h -57.434 c 3.32,19.306 7.225,36.125 10.558,56.123 C -1.61,-1.04 -0.948,-0.377 0,0"
             style="fill:#01ff00 icc-color(sRGB-IEC61966-2, 0.1, 0, 1, 0);fill-opacity:1;fill-rule:nonzero;stroke:none"
             transform="matrix(1.3333333,0,0,-1.3333333,702.15293,853.47987)"
             clip-path="url(#clipPath54)" /><path
             id="path55"
             d="M 0,0 H 56.778 C 53.023,-19.292 49.212,-40.009 45.558,-57.434 H -11.883 C -7.38,-38.284 -4.574,-17.554 0,0"
             style="fill:#01ff00 icc-color(sRGB-IEC61966-2, 0.1, 0, 1, 0);fill-opacity:1;fill-rule:nonzero;stroke:none"
             transform="matrix(1.3333333,0,0,-1.3333333,680.14453,960.87107)"
             clip-path="url(#clipPath56)" /><path
             id="path57"
             d="M 0,0 H 56.778 C 52.974,-18.195 48.991,-37.843 45.558,-58.104 H -11.883 C -7.958,-40.421 -5.123,-18.395 0,0"
             style="fill:#00e100 icc-color(sRGB-IEC61966-2, 0.1, 0, 0.88198853, 0);fill-opacity:1;fill-rule:nonzero;stroke:none"
             transform="matrix(1.3333333,0,0,-1.3333333,658.13613,1065.6224)"
             clip-path="url(#clipPath58)" /><path
             id="path59"
             d="m 0,0 h 56.778 c -1.574,-17.297 -7.615,-36.73 -9.902,-58.089 -17.611,1.097 -39.823,1.097 -57.434,0 C -7.651,-37.984 -2.921,-19.548 0,0"
             style="fill:#ff0000 icc-color(sRGB-IEC61966-2, 0.1, 1, 0, 0);fill-opacity:1;fill-rule:nonzero;stroke:none"
             transform="matrix(1.3333333,0,0,-1.3333333,526.97853,1174.7812)"
             clip-path="url(#clipPath60)" /><path
             id="path61"
             d="M 0,0 H 56.115 C 52.717,-17.24 48.129,-42.658 44.881,-58.089 27.277,-56.564 6.817,-57.86 -11.89,-57.434 -7.865,-38.341 -5.485,-17.61 0,0"
             style="fill:#ff0000 icc-color(sRGB-IEC61966-2, 0.1, 1, 0, 0);fill-opacity:1;fill-rule:nonzero;stroke:none"
             transform="matrix(1.3333333,0,0,-1.3333333,418.71293,1174.7812)"
             clip-path="url(#clipPath62)" /><path
             id="path63"
             d="M 0,0 H 56.116 C 53.737,-18.722 48.629,-38.555 45.551,-58.089 27.72,-56.564 7.053,-57.86 -11.882,-57.434 -6.896,-37.714 -5.157,-18.451 0,0"
             style="fill:#ff0000 icc-color(sRGB-IEC61966-2, 0.1, 1, 0, 0);fill-opacity:1;fill-rule:nonzero;stroke:none"
             transform="matrix(1.3333333,0,0,-1.3333333,305.1556,1174.7812)"
             clip-path="url(#clipPath64)" /><path
             id="path65"
             d="M 0,0 H 56.778 C 53.473,-19.605 49.027,-41.967 45.547,-58.765 H -11.89 C -7.729,-41.197 -4.919,-18.779 0,0"
             style="fill:#ff0000 icc-color(sRGB-IEC61966-2, 0.1, 1, 0, 0);fill-opacity:1;fill-rule:nonzero;stroke:none"
             transform="matrix(1.3333333,0,0,-1.3333333,203.05533,526.90693)"
             clip-path="url(#clipPath66)" /><path
             id="path67"
             d="M 0,0 H 56.108 C 52.39,-18.395 49.288,-39.182 44.896,-57.434 H -11.89 C -7.679,-38.982 -5.92,-18.864 0,0"
             style="fill:#ff0000 icc-color(sRGB-IEC61966-2, 0.1, 1, 0, 0);fill-opacity:1;fill-rule:nonzero;stroke:none"
             transform="matrix(1.3333333,0,0,-1.3333333,191.60933,1174.7812)"
             clip-path="url(#clipPath68)" /><path
             id="path69"
             d="M 0,0 H 57.433 C 54.438,-18.958 49.718,-40.6 46.858,-57.441 29.042,-55.895 8.367,-57.213 -10.564,-56.772 -7.255,-39.325 -3.067,-19.62 0,0"
             style="fill:#ff0000 icc-color(sRGB-IEC61966-2, 0.1, 1, 0, 0);fill-opacity:1;fill-rule:nonzero;stroke:none"
             transform="matrix(1.3333333,0,0,-1.3333333,181.9304,636.0644)"
             clip-path="url(#clipPath70)" /><path
             id="path71"
             d="M 0,0 H 56.774 C 53.198,-16.378 48.913,-40.842 45.551,-57.434 H -11.89 C -7.979,-42.502 -4.934,-16.108 0,0"
             style="fill:#ff0000 icc-color(sRGB-IEC61966-2, 0.1, 1, 0, 0);fill-opacity:1;fill-rule:nonzero;stroke:none"
             transform="matrix(1.3333333,0,0,-1.3333333,161.68427,746.98053)"
             clip-path="url(#clipPath72)" /><path
             id="path73"
             d="m 0,0 h 56.123 c -2.614,-20.289 -7.27,-38.512 -10.568,-58.103 h -57.43 C -7.469,-39.809 -5.46,-19.733 0,0"
             style="fill:#ff0000 icc-color(sRGB-IEC61966-2, 0.1, 1, 0, 0);fill-opacity:1;fill-rule:nonzero;stroke:none"
             transform="matrix(1.3333333,0,0,-1.3333333,141.42773,853.47987)"
             clip-path="url(#clipPath74)" /><path
             id="path75"
             d="m 0,0 c -3.85,-17.283 -7.17,-37.173 -11.213,-57.434 h -57.444 c 4.759,17.697 6.775,41.648 11.89,56.779 C -37.71,-0.585 -19.562,0.441 0,0"
             style="fill:#ff0000 icc-color(sRGB-IEC61966-2, 0.1, 1, 0, 0);fill-opacity:1;fill-rule:nonzero;stroke:none"
             transform="matrix(1.3333333,0,0,-1.3333333,196.8808,960.87107)"
             clip-path="url(#clipPath76)" /><path
             id="path77"
             d="M 0,0 H 56.771 C 52.447,-20.004 49.544,-38.868 45.547,-58.104 H -11.22 C -7.06,-35.947 -5.189,-21.429 0,0"
             style="fill:#ff0000 icc-color(sRGB-IEC61966-2, 0.1, 1, 0, 0);fill-opacity:1;fill-rule:nonzero;stroke:none"
             transform="matrix(1.3333333,0,0,-1.3333333,99.182933,1065.6224)"
             clip-path="url(#clipPath78)" /><path
             id="path79"
             d="M 0,0 H 56.116 C 53.078,-20.603 49.345,-37.045 45.554,-58.089 27.948,-56.564 7.491,-57.86 -11.224,-57.434 -7.551,-37.001 -4.716,-19.591 0,0"
             style="fill:#ff0000 icc-color(sRGB-IEC61966-2, 0.1, 1, 0, 0);fill-opacity:1;fill-rule:nonzero;stroke:none"
             transform="matrix(1.3333333,0,0,-1.3333333,80.6888,1174.7812)"
             clip-path="url(#clipPath80)" /></g><path
           style="fill:#d6d6d6;fill-opacity:1;stroke-width:0.0808822"
           d="m 82.29512,86.346301 c -0.290899,-0.13213 -0.414336,-0.487849 -0.309266,-0.891238 0.129643,-0.497734 0.516278,-0.784543 0.931322,-0.690863 0.287469,0.06489 0.400275,0.237829 0.401171,0.615038 l 5.66e-4,0.239411 H 82.73364 82.148368 l 0.0099,0.175285 c 0.0075,0.132335 0.02501,0.196494 0.07154,0.261839 0.126158,0.177174 0.396248,0.229093 0.69999,0.134557 l 0.159027,-0.0495 -0.0079,0.09411 c -0.0071,0.08503 -0.01788,0.0971 -0.111426,0.125153 -0.167591,0.05026 -0.550619,0.04242 -0.674385,-0.01379 z m 0.836107,-1.034042 c -0.02492,-0.274857 -0.134522,-0.392432 -0.365811,-0.392432 -0.152621,0 -0.22409,0.02953 -0.352704,0.145723 -0.108708,0.09821 -0.170974,0.195463 -0.208158,0.325118 l -0.02085,0.07269 h 0.48061 0.480611 z m 4.17316,1.034935 c -0.164356,-0.08734 -0.257626,-0.289048 -0.221847,-0.47977 0.05471,-0.291624 0.372657,-0.454557 0.888719,-0.455429 l 0.239412,-4.04e-4 v -0.117302 c 0,-0.159039 -0.05731,-0.28497 -0.15197,-0.33392 -0.114578,-0.05925 -0.326774,-0.04999 -0.501558,0.02189 l -0.148824,0.0612 v -0.08902 c 0,-0.07798 0.01173,-0.09392 0.0945,-0.128505 0.262993,-0.109885 0.592879,-0.100106 0.748344,0.02218 0.09543,0.07507 0.165156,0.24028 0.166802,0.395237 7.28e-4,0.07118 -0.0418,0.353617 -0.09456,0.627646 l -0.09594,0.498234 h -0.08941 -0.08941 l 0.01293,-0.114734 0.01293,-0.114735 -0.08363,0.08868 c -0.046,0.04877 -0.125635,0.106226 -0.17697,0.127675 -0.132307,0.05528 -0.397434,0.05064 -0.509519,-0.0089 z m 0.486174,-0.147428 c 0.177204,-0.07404 0.288538,-0.225306 0.357419,-0.485612 0.04122,-0.155759 0.03346,-0.159745 -0.27237,-0.139932 -0.338064,0.0219 -0.511699,0.111172 -0.572076,0.294116 -0.08668,0.262637 0.194201,0.453779 0.487027,0.331428 z m 2.859229,0.160803 c -0.246451,-0.08938 -0.372622,-0.295276 -0.372622,-0.608076 0,-0.593014 0.33414,-1.000737 0.818457,-0.998695 0.199687,8.41e-4 0.304054,0.04104 0.414882,0.159795 0.114049,0.122208 0.170768,0.402003 0.126431,0.623687 l -0.01608,0.0804 -0.572744,0.007 -0.572743,0.007 -0.0088,0.06229 c -0.02948,0.20859 0.09154,0.43522 0.272859,0.510979 0.116606,0.04872 0.357199,0.04219 0.520234,-0.01412 l 0.137236,-0.0474 -0.0078,0.09139 c -0.0067,0.07816 -0.02094,0.0961 -0.09841,0.123923 -0.114523,0.04113 -0.529331,0.04238 -0.640875,0.0019 z m 0.796169,-1.040851 c 0,-0.255374 -0.12316,-0.399891 -0.340792,-0.399891 -0.149957,0 -0.290762,0.05372 -0.393657,0.150197 -0.07223,0.06772 -0.196549,0.295455 -0.197061,0.360979 -1.62e-4,0.02469 0.110043,0.03235 0.465628,0.03235 h 0.465882 z m 3.429405,1.03911 c -0.410869,-0.130282 -0.651264,-0.428465 -0.678348,-0.841413 -0.04027,-0.613972 0.340011,-1.159464 0.912194,-1.308499 0.2023,-0.05269 0.600946,-0.05141 0.793278,0.0026 0.08279,0.02323 0.150521,0.05061 0.150521,0.06084 0,0.01023 -0.01246,0.05435 -0.02769,0.09804 l -0.02769,0.07943 -0.09525,-0.04243 c -0.07068,-0.03149 -0.175354,-0.04264 -0.405838,-0.04322 -0.296232,-7.28e-4 -0.318633,0.003 -0.484639,0.08167 -0.303377,0.143714 -0.495023,0.392458 -0.579402,0.75202 -0.07846,0.334345 0.0045,0.625901 0.236018,0.829714 0.06552,0.05768 0.172972,0.123209 0.238776,0.145631 0.138251,0.04711 0.488181,0.05417 0.636969,0.01285 0.05472,-0.01519 0.102836,-0.02386 0.106932,-0.01927 0.0041,0.0046 0.0017,0.04602 -0.0053,0.09205 -0.01068,0.07012 -0.02802,0.08794 -0.106932,0.109855 -0.12984,0.03606 -0.537906,0.03001 -0.663594,-0.0098 z m 3.135933,0.0046 c -0.09711,-0.02573 -0.09896,-0.02845 -0.08181,-0.120265 0.0096,-0.05167 0.02011,-0.09658 0.02325,-0.0998 0.0031,-0.0032 0.06628,0.01716 0.140323,0.04529 0.337645,0.128296 0.684648,-0.0032 0.684648,-0.259437 0,-0.13216 -0.07407,-0.215849 -0.320698,-0.362371 -0.211491,-0.125645 -0.285759,-0.220965 -0.288006,-0.369647 -0.0032,-0.214022 0.113179,-0.342812 0.379978,-0.420373 0.156726,-0.04556 0.313781,-0.04119 0.511228,0.01421 0.0937,0.02629 0.09493,0.02831 0.06733,0.11013 -0.01546,0.04584 -0.03039,0.08638 -0.03317,0.09009 -0.0028,0.0037 -0.05493,-0.01085 -0.115883,-0.03235 -0.06095,-0.0215 -0.177516,-0.0391 -0.259032,-0.0391 -0.18085,0 -0.310223,0.07483 -0.346191,0.200242 -0.03385,0.118038 0.02083,0.187712 0.277029,0.352989 0.240974,0.155454 0.31832,0.239045 0.343021,0.370713 0.0388,0.206847 -0.124895,0.454342 -0.343916,0.519961 -0.124073,0.03717 -0.497343,0.03701 -0.638106,-3.23e-4 z m 5.366403,-0.008 c -0.10816,-0.04862 -0.24874,-0.178542 -0.30085,-0.278042 -0.0673,-0.128436 -0.0914,-0.335801 -0.0615,-0.527577 0.053,-0.3393 0.2374,-0.600944 0.5136,-0.728708 0.20645,-0.0955 0.48272,-0.09684 0.66538,-0.0032 0.49947,0.255971 0.38821,1.211708 -0.17499,1.503133 -0.14661,0.07586 -0.50651,0.09517 -0.64166,0.03442 z m 0.50615,-0.16445 c 0.41086,-0.186618 0.56243,-0.960021 0.23591,-1.203798 -0.10445,-0.07798 -0.36596,-0.08881 -0.49831,-0.02062 -0.24577,0.126611 -0.37643,0.360728 -0.39377,0.705568 -0.009,0.18804 -0.003,0.23786 0.043,0.32782 0.0503,0.09861 0.14433,0.186558 0.23646,0.221176 0.0824,0.03096 0.2764,0.01543 0.37674,-0.03014 z m -24.432583,0.119996 c -0.0067,-0.03203 -0.04766,-0.477528 -0.09103,-0.989998 -0.04337,-0.51247 -0.08484,-0.975439 -0.09216,-1.028822 l -0.0133,-0.09706 h 0.10225 c 0.123923,0 0.106097,-0.09631 0.196088,1.059384 0.03595,0.461663 0.0691,0.843123 0.07366,0.847689 0.0046,0.0046 0.222255,-0.422656 0.483752,-0.949385 l 0.475447,-0.957688 h 0.122531 0.122529 l 0.01375,0.109999 c 0.0076,0.0605 0.03746,0.487623 0.06644,0.949162 0.02898,0.461539 0.05594,0.842416 0.05992,0.846393 0.004,0.004 0.222169,-0.423145 0.48487,-0.949161 l 0.477637,-0.956393 h 0.107932 0.107931 l -0.54765,1.086518 -0.547651,1.086517 -0.135882,5.66e-4 -0.135882,5.66e-4 v -0.0913 c 0,-0.119235 -0.103065,-1.777855 -0.112428,-1.809295 -0.004,-0.01327 -0.221134,0.408935 -0.482626,0.938233 l -0.475442,0.962305 h -0.124258 c -0.107998,0 -0.12585,-0.0076 -0.136428,-0.05823 z m 4.928186,0.04039 c -3.23e-4,-0.01154 0.10076,-0.501414 0.224689,-1.088619 L 84.829467,84.1951 h 0.150605 c 0.08283,0 0.150605,0.0054 0.150605,0.01189 0,0.03448 0.389396,1.861421 0.398736,1.870761 0.01229,0.01229 -0.01035,0.04707 0.698693,-1.073832 l 0.511628,-0.808822 h 0.167802 c 0.1476,0 0.166208,0.0055 0.154562,0.04529 -0.0073,0.02491 -0.107639,0.493705 -0.223016,1.041762 -0.115377,0.548058 -0.215813,1.016851 -0.22319,1.041763 -0.0098,0.03323 -0.04065,0.04529 -0.115691,0.04529 -0.09292,0 -0.10101,-0.0053 -0.08843,-0.05823 0.06832,-0.287215 0.397969,-1.843081 0.391806,-1.849245 -0.0044,-0.0044 -0.281328,0.420079 -0.615408,0.943275 -0.602529,0.943607 -0.608168,0.951328 -0.700648,0.959154 -0.09175,0.0078 -0.09364,0.006 -0.118953,-0.112723 -0.01415,-0.06634 -0.104744,-0.497694 -0.201323,-0.95857 -0.09658,-0.460878 -0.181433,-0.832125 -0.188562,-0.824997 -0.0071,0.0071 -0.102074,0.434936 -0.210987,0.950682 l -0.198026,0.937718 -0.09479,0.008 c -0.05214,0.0044 -0.09508,-0.0014 -0.09543,-0.01294 z m 4.304227,-0.03249 c 0.0072,-0.02769 0.122158,-0.551731 0.255371,-1.164541 l 0.242206,-1.114198 0.0988,-1.62e-4 c 0.08193,-1.62e-4 0.09654,0.0076 0.08556,0.04513 -0.03518,0.120271 -0.275751,1.285204 -0.269344,1.304238 0.004,0.01199 0.187043,-0.117867 0.406682,-0.288572 l 0.399344,-0.310375 h 0.14289 c 0.07859,0 0.131826,0.0097 0.118303,0.02146 -0.01762,0.01537 -0.825923,0.60587 -0.913461,0.667316 -0.0073,0.0051 0.526142,0.683699 0.664006,0.844754 0.03617,0.04226 0.03021,0.04529 -0.08894,0.04529 h -0.127714 l -0.319079,-0.402707 c -0.175493,-0.22149 -0.322419,-0.399107 -0.326501,-0.394706 -0.0072,0.0077 -0.16819,0.759119 -0.16819,0.784792 0,0.0069 -0.04795,0.01262 -0.106548,0.01262 -0.0928,0 -0.10485,-0.0065 -0.09338,-0.05034 z m 3.988659,-0.01151 c 0.0085,-0.03402 0.109177,-0.502811 0.223641,-1.041763 0.114464,-0.53895 0.214349,-1.000293 0.221967,-1.025204 0.01013,-0.03311 0.04123,-0.04529 0.115635,-0.04529 0.05598,0 0.101785,0.0097 0.101785,0.02161 0,0.01189 -0.08744,0.428268 -0.194315,0.925293 -0.106874,0.497024 -0.200976,0.93571 -0.209116,0.974857 l -0.0148,0.07118 h 0.442055 c 0.467343,0 0.459312,-0.0023 0.425743,0.122941 -0.01557,0.0581 -0.01688,0.05823 -0.571863,0.05823 h -0.556257 z m 3.313478,0.01656 c 0.0077,-0.02491 0.107296,-0.487881 0.221395,-1.028821 0.114099,-0.540941 0.214053,-1.011318 0.222119,-1.045285 l 0.01467,-0.06176 0.367447,0.01413 c 0.438897,0.01688 0.624079,0.06986 0.806994,0.230864 0.151158,0.133055 0.213629,0.256342 0.249662,0.49271 0.05824,0.382069 -0.08759,0.857236 -0.340807,1.110455 -0.255249,0.255248 -0.516905,0.332057 -1.133087,0.332615 -0.390376,3.23e-4 -0.421277,-0.003 -0.408389,-0.04491 z m 1.051958,-0.210094 c 0.411528,-0.157638 0.620615,-0.502662 0.619368,-1.022042 -6.47e-4,-0.283638 -0.0459,-0.403807 -0.202328,-0.537705 -0.139263,-0.119205 -0.246867,-0.151597 -0.564225,-0.16985 -0.242041,-0.01392 -0.263534,-0.0113 -0.27682,0.03377 -0.0079,0.02687 -0.09132,0.409922 -0.185328,0.851215 -0.09401,0.441294 -0.17784,0.830164 -0.186293,0.864156 l -0.01537,0.0618 0.3337,-0.01317 c 0.254158,-0.01003 0.367929,-0.02629 0.477293,-0.06818 z m 3.419495,-0.721669 c -0.0463,-0.537381 -0.0908,-1.026557 -0.0989,-1.087057 l -0.0147,-0.109999 h 0.10647 c 0.0586,0 0.10678,0.0087 0.10715,0.01941 0.005,0.153286 0.15211,1.876119 0.16046,1.884476 0.006,0.0063 0.22343,-0.419431 0.48241,-0.946174 l 0.47086,-0.957713 h 0.12867 c 0.0708,0 0.12896,0.0087 0.1293,0.01941 0.006,0.174649 0.12603,1.875859 0.13335,1.883182 0.006,0.0056 0.22513,-0.420184 0.48783,-0.9462 l 0.47764,-0.956393 h 0.0973 c 0.0535,0 0.0971,0.0087 0.0967,0.01941 -3.2e-4,0.01068 -0.24238,0.496941 -0.53785,1.080587 l -0.53722,1.061174 -0.13508,0.0078 c -0.11579,0.0067 -0.13508,0.0012 -0.13505,-0.03882 5e-5,-0.07085 -0.103,-1.745529 -0.11196,-1.819584 -0.006,-0.04601 -0.14538,0.213883 -0.48384,0.89941 l -0.47601,0.964116 h -0.13163 -0.13164 z m 4.24643,0.944704 c 0.006,-0.01779 0.0804,-0.373003 0.16453,-0.789355 l 0.153,-0.757002 0.0913,-5.5e-5 c 0.0908,-5.5e-5 0.0912,4.85e-4 0.0814,0.103113 l -0.01,0.103169 0.10068,-0.100682 c 0.11383,-0.11382 0.27769,-0.170895 0.4161,-0.144928 0.076,0.01426 0.0868,0.025 0.0739,0.07328 -0.008,0.03112 -0.0153,0.0771 -0.0155,0.102177 -3.3e-4,0.03847 -0.0161,0.04308 -0.10123,0.02947 -0.20599,-0.03294 -0.37555,0.07786 -0.48639,0.317822 -0.0341,0.07374 -0.10229,0.324148 -0.15162,0.556469 -0.0493,0.232321 -0.0957,0.448608 -0.10296,0.480637 -0.0111,0.04873 -0.0305,0.05823 -0.11906,0.05823 -0.0736,0 -0.10229,-0.0099 -0.0943,-0.03235 z m 1.05637,-0.06471 c 0.0119,-0.05338 0.12176,-0.557117 0.2442,-1.11941 0.12243,-0.562293 0.22874,-1.042733 0.23623,-1.067645 0.01,-0.03169 0.0403,-0.04529 0.10247,-0.04529 0.0489,0 0.0888,0.0091 0.0888,0.02014 0,0.01108 -0.0643,0.31558 -0.14293,0.676674 -0.0786,0.361095 -0.1385,0.660967 -0.13308,0.666383 0.005,0.0054 0.18911,-0.12997 0.40822,-0.300856 l 0.39838,-0.310704 0.14235,3.23e-4 c 0.11669,2.43e-4 0.1351,0.006 0.10213,0.03183 -0.0221,0.01734 -0.22885,0.170674 -0.45941,0.340741 -0.23055,0.170065 -0.41919,0.31712 -0.41919,0.326788 0,0.0097 0.15142,0.20682 0.33647,0.438116 0.18506,0.231297 0.33647,0.424917 0.33647,0.430269 0,0.0054 -0.0553,0.0092 -0.12294,0.0086 l -0.12294,-0.0011 -0.31059,-0.397796 c -0.17082,-0.218789 -0.31756,-0.390078 -0.32608,-0.380642 -0.009,0.0094 -0.0471,0.168565 -0.0857,0.353624 -0.0961,0.46068 -0.0807,0.427058 -0.19546,0.427058 h -0.099 z m 2.14703,-1.351262 v -0.568322 l -0.20058,-0.0076 c -0.19745,-0.0074 -0.20072,-0.0087 -0.20878,-0.07874 l -0.008,-0.07118 h 0.50642 0.50643 v 0.07765 0.07765 h -0.19412 -0.19412 v 0.569411 0.569411 h -0.10353 -0.10353 z m 0.88,-0.07997 v -0.648292 l 0.1595,0.0077 0.15951,0.0077 0.18754,0.490124 0.18754,0.490124 0.037,-0.08895 c 0.0203,-0.04892 0.10583,-0.272268 0.19002,-0.496324 l 0.15306,-0.407376 0.16176,-2.43e-4 0.16177,-2.43e-4 v 0.647058 0.647058 h -0.10302 -0.10301 l -0.007,-0.547587 -0.007,-0.547588 -0.20706,0.541117 c -0.19108,0.499357 -0.21222,0.541717 -0.27395,0.548892 -0.0646,0.0075 -0.0738,-0.0105 -0.26954,-0.530587 -0.11145,-0.296099 -0.21238,-0.549428 -0.22428,-0.562951 -0.0119,-0.01352 -0.0216,0.228152 -0.0216,0.537058 v 0.561646 h -0.0906 -0.0906 z M 75.250108,82.493629 c -0.729558,-0.004 -1.326445,-0.01584 -1.326416,-0.02639 1.37e-4,-0.05009 0.233705,-1.926829 0.466436,-3.747838 0.142019,-1.111236 0.258216,-2.034264 0.258216,-2.051172 0,-0.02343 0.415443,-0.03074 1.747055,-0.03074 0.960881,0 1.747056,0.0034 1.747056,0.0075 0,0.0041 -0.01738,0.146776 -0.03862,0.317058 -0.02124,0.170282 -0.03871,0.318339 -0.03882,0.329016 -1.13e-4,0.01068 -0.634749,0.01941 -1.410299,0.01941 h -1.410093 l -0.0118,0.05823 c -0.01745,0.08611 -0.22208,1.65987 -0.222111,1.708232 -6e-6,0.01068 0.618207,0.01941 1.373807,0.01941 h 1.373818 l -0.01423,0.07118 c -0.0078,0.03915 -0.02645,0.170176 -0.04138,0.291176 -0.01493,0.121 -0.03297,0.246205 -0.04008,0.278235 l -0.01293,0.05824 h -1.35914 c -1.064199,0 -1.361524,0.007 -1.370126,0.03235 -0.01597,0.04705 -0.246213,1.843374 -0.246213,1.920962 v 0.06551 h 1.498711 1.498711 l -0.01189,0.09706 c -0.0065,0.05338 -0.02619,0.207706 -0.04367,0.342941 l -0.03179,0.245882 -0.503864,5.01e-4 c -0.277125,2.75e-4 -1.100775,-0.0027 -1.830332,-0.0067 z m 2.555877,-0.0199 c 0,-0.01672 0.785824,-1.883131 1.509187,-3.584477 l 0.478691,-1.12588 0.300672,-0.0073 c 0.22631,-0.0055 0.30367,9.06e-4 0.312796,0.02588 0.01986,0.05434 0.815118,4.635524 0.815118,4.695581 0,0.0051 -0.116249,0.0094 -0.25833,0.0094 -0.246859,0 -0.258897,-0.0026 -0.2711,-0.05823 -0.01446,-0.06592 -0.221157,-1.259485 -0.221157,-1.277039 0,-0.0063 -0.345949,-0.0083 -0.768777,-0.0045 l -0.768778,0.0069 -0.27517,0.659998 -0.275171,0.659999 -0.288991,0.0073 c -0.158944,0.004 -0.28899,6.31e-4 -0.28899,-0.0075 z m 2.578746,-1.91051 c -0.02552,-0.101685 -0.215192,-1.274676 -0.276955,-1.712791 -0.03211,-0.227764 -0.06697,-0.424003 -0.07747,-0.436086 -0.0105,-0.01208 -0.02745,0.01703 -0.03766,0.06471 -0.02989,0.13948 -0.256834,0.734566 -0.495077,1.298157 -0.12151,0.287448 -0.248481,0.595427 -0.282156,0.684397 l -0.06123,0.161765 h 0.622821 0.622821 z m 1.188201,1.852497 c 0.007,-0.03915 0.04771,-0.344882 0.09048,-0.67941 0.112339,-0.878749 0.515069,-3.858466 0.531209,-3.930301 l 0.01368,-0.0609 1.02766,0.01189 c 0.859865,0.01 1.053018,0.01902 1.182955,0.05556 0.348082,0.09789 0.571111,0.340504 0.673156,0.73228 0.05036,0.193347 0.0504,0.650625 6.6e-5,0.843854 -0.126877,0.487117 -0.469537,0.812659 -0.996158,0.946396 -0.162335,0.04123 -0.179278,0.05106 -0.14169,0.08226 0.07263,0.06027 0.26825,0.326458 0.362618,0.493414 0.129637,0.22935 0.247628,0.506941 0.436727,1.027462 0.09153,0.251943 0.174434,0.478842 0.184236,0.504221 0.01657,0.0429 -0.0035,0.04563 -0.284813,0.03882 l -0.302635,-0.0073 -0.215215,-0.602243 C 83.893111,81.194247 83.67364,80.721002 83.539217,80.586578 83.402789,80.450151 83.252882,80.416319 82.784806,80.416319 h -0.395305 l -0.01458,0.08412 c -0.01927,0.111239 -0.155397,1.111488 -0.206934,1.520586 -0.02242,0.177941 -0.04726,0.355558 -0.05521,0.394705 l -0.01445,0.07118 h -0.269061 -0.26906 z m 2.477163,-2.617155 c 0.288762,-0.09466 0.478561,-0.325437 0.550187,-0.668957 0.06938,-0.332767 -0.03868,-0.653442 -0.259016,-0.768595 -0.09843,-0.05144 -0.142411,-0.05411 -0.892367,-0.05411 H 82.66006 l -0.08236,0.608234 c -0.0453,0.334529 -0.09053,0.687969 -0.100506,0.785423 l -0.01814,0.177188 0.708169,-0.01095 c 0.643503,-0.01 0.724122,-0.01618 0.882879,-0.06823 z m 2.038227,2.666516 c 0,-0.01848 0.27818,-2.027493 0.50383,-3.63867 0.03574,-0.255211 0.05854,-0.470469 0.05066,-0.47835 -0.0079,-0.0079 -0.291121,-0.01876 -0.629422,-0.02417 l -0.615091,-0.0098 0.03434,-0.249453 c 0.01889,-0.1372 0.03984,-0.264013 0.04655,-0.281807 0.0096,-0.02537 0.338963,-0.03235 1.527138,-0.03235 h 1.514926 v 0.0553 c 0,0.03042 -0.01374,0.158533 -0.03054,0.284705 l -0.03054,0.229403 h -0.614987 c -0.357365,0 -0.621307,0.01023 -0.630074,0.02441 -0.01423,0.02303 -0.237787,1.577032 -0.481458,3.346759 l -0.109584,0.79588 h -0.267873 c -0.147331,0 -0.267874,-0.0098 -0.267874,-0.02182 z m 2.277643,0.01423 c 0,-0.02575 0.650541,-4.599958 0.662415,-4.657699 l 0.01464,-0.07118 h 0.256767 0.256767 l -1.62e-4,0.07118 c -8.1e-5,0.03915 -0.05834,0.478822 -0.129397,0.977057 -0.07106,0.498234 -0.129207,0.908793 -0.129214,0.912351 -8e-6,0.0036 0.441377,0.0065 0.980856,0.0065 h 0.98087 l 0.03047,-0.174706 c 0.01676,-0.09609 0.07011,-0.460058 0.118554,-0.808822 0.04845,-0.348764 0.101043,-0.712734 0.11688,-0.808822 l 0.02879,-0.174705 h 0.254958 c 0.140226,0 0.260127,0.0087 0.266445,0.01941 0.0063,0.01068 -0.125657,0.974469 -0.293281,2.141761 -0.167624,1.167292 -0.318897,2.224261 -0.336163,2.348819 l -0.03139,0.22647 h -0.269091 c -0.208617,0 -0.269091,-0.0079 -0.269091,-0.03493 0,-0.03394 0.269411,-1.912492 0.298438,-2.080946 l 0.01449,-0.08412 h -0.9847 c -0.541585,0 -0.984701,0.0048 -0.984701,0.01064 0,0.0059 -0.02864,0.195118 -0.06365,0.420588 -0.03501,0.225469 -0.09904,0.677826 -0.14229,1.005238 -0.04325,0.327411 -0.08502,0.633145 -0.09281,0.67941 l -0.01418,0.08412 h -0.270591 c -0.148826,0 -0.270592,-0.0034 -0.270592,-0.0076 z m 18.213025,-0.07653 c 0.009,-0.04626 0.0408,-0.194764 0.0705,-0.329999 l 0.0541,-0.245882 0.33,-0.0072 c 0.1815,-0.004 0.33,1e-5 0.33,0.0089 0,0.01629 -0.0931,0.492558 -0.1173,0.600132 -0.0128,0.05672 -0.0218,0.05824 -0.34843,0.05824 h -0.33533 z m 1.87164,0.05411 c -0.41057,-0.04176 -0.56941,-0.204261 -0.56941,-0.582543 0,-0.165391 0.0252,-0.289065 0.14392,-0.706324 0.27625,-0.970934 0.35209,-1.165001 0.53123,-1.359346 0.15489,-0.168033 0.31715,-0.228441 0.64816,-0.241302 0.35732,-0.01388 0.52166,0.02995 0.6516,0.173777 0.13349,0.147755 0.15938,0.4177 0.069,0.719362 l -0.0313,0.104427 -0.27514,-0.0031 -0.27514,-0.0031 0.0129,-0.07765 c 0.007,-0.04271 0.0129,-0.151391 0.0129,-0.241522 0,-0.19417 -0.0467,-0.249902 -0.19038,-0.22739 -0.13301,0.02083 -0.20982,0.08518 -0.27657,0.231693 -0.0609,0.133635 -0.35929,1.180786 -0.40772,1.430754 -0.044,0.227104 0.0186,0.346462 0.18171,0.346462 0.13657,0 0.26558,-0.144991 0.33438,-0.375818 l 0.0529,-0.177392 0.28227,0.007 c 0.15525,0.0039 0.28623,0.01097 0.29108,0.01581 0.005,0.0048 -0.0149,0.102654 -0.0439,0.217365 -0.14386,0.568878 -0.51576,0.812651 -1.14253,0.748898 z m 1.94501,-0.0454 c -0.33459,-0.115543 -0.44177,-0.317442 -0.38951,-0.733676 0.0232,-0.184773 0.23237,-0.977348 0.34598,-1.310937 0.19495,-0.572467 0.42355,-0.766649 0.93922,-0.79782 0.32764,-0.01981 0.5393,0.03656 0.69325,0.184621 0.25206,0.242404 0.23228,0.491864 -0.13464,1.697928 -0.18761,0.616673 -0.3577,0.859696 -0.66896,0.955836 -0.22762,0.0703 -0.5881,0.07216 -0.78534,0.004 z m 0.6068,-0.433251 c 0.0359,-0.02353 0.0864,-0.08467 0.11231,-0.135882 0.0743,-0.147109 0.41743,-1.37015 0.43392,-1.546638 0.0137,-0.14698 0.01,-0.164648 -0.0522,-0.22647 -0.13148,-0.131482 -0.38013,-0.06278 -0.47963,0.13252 -0.0607,0.119083 -0.38376,1.257712 -0.41904,1.476736 -0.0278,0.172489 -0.006,0.269099 0.0708,0.313753 0.0717,0.0417 0.26091,0.03376 0.33383,-0.01402 z m 1.02949,0.412496 c 0.15688,-0.532797 0.73253,-2.436811 0.8219,-2.718538 l 0.0267,-0.08412 h 0.42807 0.42806 l -0.0177,0.174705 c -0.01,0.09609 -0.0633,0.535058 -0.1189,0.975488 -0.0556,0.44043 -0.0978,0.804157 -0.0937,0.808282 0.004,0.0041 0.21565,-0.434845 0.47006,-0.975488 l 0.46256,-0.982988 h 0.43523 c 0.23938,0 0.43523,0.0062 0.43523,0.01385 0,0.0367 -0.4426,1.593594 -0.79256,2.787915 -0.0115,0.03939 -0.0485,0.04529 -0.2833,0.04529 -0.14851,0 -0.27002,-0.0076 -0.27002,-0.01685 0,-0.02143 0.21277,-0.732644 0.44332,-1.481876 0.0981,-0.318947 0.17436,-0.583989 0.16936,-0.588982 -0.005,-0.005 -0.23422,0.462697 -0.50939,1.039314 l -0.50031,1.048393 h -0.30619 c -0.16841,0 -0.3062,-0.0035 -0.3062,-0.0079 0,-0.0043 0.0458,-0.403235 0.10185,-0.886469 0.11142,-0.961097 0.13984,-1.261218 0.11392,-1.202732 -0.009,0.02103 -0.1472,0.498554 -0.30641,1.061175 l -0.28948,1.022948 -0.27785,0.0074 c -0.25636,0.0068 -0.2768,0.0038 -0.26425,-0.03882 z"
           id="path1"
           sodipodi:nodetypes="csssccccssccsccsssscccsssscssscssscscccccssssssssssssscccssscssssssscscscssssscsccssssssscccssssssssssssssssccsssssssssssssssssscsssscccsssscccccccscccsssscsssscssssssssssssscssssscccsscssssscsssssssssssscssscsssscsssscsscssssscsssscscsscscsscscscsssscccssscsscssscssssssssssssssccsssssscsssscsccssccccccccccccccccccsscccccccccssssscccccsssssssscssscssscssscccsscsccsscscssssscccssssssssscccsssscsssssssssscssscssscccssssscsscsssssscssscsscssscsscsccccssscssscsssscssscssssscsccsscsssscsssssssscccssssssscsssssssssssssssssssssssscccsssscsssssssscssssscsss" /></g><text
         xml:space="preserve"
         style="font-size:5.56756px;font-family:'Padauk Book';-inkscape-font-specification:'Padauk Book, Normal';display:inline;fill:#ffd100;fill-opacity:1;fill-rule:evenodd;stroke-width:0.281823"
         x="74.03701"
         y="79.435112"
         id="text1"><tspan
           sodipodi:role="line"
           id="tspan1"
           style="fill:#ffd100;fill-opacity:1;stroke-width:0.281824"
           x="74.03701"
           y="79.435112">Serial Port Example</tspan></text><text
         xml:space="preserve"
         style="font-style:normal;font-variant:normal;font-weight:normal;font-stretch:normal;font-size:5.46856px;font-family:sans-serif;-inkscape-font-specification:'sans-serif, Normal';font-variant-ligatures:normal;font-variant-caps:normal;font-variant-numeric:normal;font-variant-east-asian:normal;display:inline;fill:#172815;fill-opacity:1;stroke:none;stroke-width:0.482189"
         x="123.20756"
         y="81.665016"
         id="text3564"><tspan
           sodipodi:role="line"
           id="tspan3562"
           style="font-style:normal;font-variant:normal;font-weight:normal;font-stretch:normal;font-size:5.46856px;font-family:sans-serif;-inkscape-font-specification:'sans-serif, Normal';font-variant-ligatures:normal;font-variant-caps:normal;font-variant-numeric:normal;font-variant-east-asian:normal;fill:#172815;fill-opacity:1;stroke-width:0.482189"
           x="123.20756"
           y="81.665016">CLEAR</tspan></text></g></g></svg>
